<svg width="32" height="40" viewBox="0 0 32 40" xmlns="http://www.w3.org/2000/svg">
	<path fill="#000000" stroke="#808080" stroke-width="1" d="m 2.5,0.5 c -1.107998,0 -2,0.892002 -2,2 v 27 c 0,1.107998 0.892002,2 2,2 h 4.7044922 a 4.1676656,4.1676656 24.095192 0 1 3.1064288,1.38926 L 16,39.25 21.68908,32.88926 A 4.1676657,4.1676657 155.90481 0 1 24.795508,31.5 H 29.5 c 1.107998,0 2,-0.892002 2,-2 v -27 c 0,-1.107998 -0.892002,-2 -2,-2 z" />
	<path fill="#ffffff" stroke-width="0" d="M 5,3 C 3.892001,3 3,3.892001 3,5 v 20.028625 c 0,1.08876 0.022359,3.061889 0.8932964,3.63942 C 4.4251287,29.020704 5.8826147,29 6.9713752,29 h 1.2427966 a 4.4084708,4.4084708 24.093187 0 1 3.2857102,1.4693 l 2.661918,2.975769 a 2.4663321,2.4663321 0 0 0 3.6764,0 L 20.500118,30.4693 A 4.4084708,4.4084708 155.90681 0 1 23.785828,29 H 27 c 1.107999,0 2,-0.892001 2,-2 V 5 C 29,3.892001 28.107999,3 27,3 Z" />
	<rect fill="#808080" width="20" height="20" x="6" y="6" rx="2" ry="2" />
</svg>
