<svg width="32" height="40" viewBox="0 0 32 40" xmlns="http://www.w3.org/2000/svg" aria-hidden="true" focusable="false">
	<!-- iconHtml -->
	<path fill="#000000" stroke="#808080" stroke-width="1" d="m 2.5,0.5 c -1.107998,0 -2,0.892002 -2,2 v 27 c 0,1.107998 0.892002,2 2,2 h 4.7044922 a 4.1676656,4.1676656 24.095192 0 1 3.1064288,1.38926 L 16,39.25 21.68908,32.88926 A 4.1676657,4.1676657 155.90481 0 1 24.795508,31.5 H 29.5 c 1.107998,0 2,-0.892002 2,-2 v -27 c 0,-1.107998 -0.892002,-2 -2,-2 z" />
	<!-- backgroundHtml -->
	<path fill="#ffffff" stroke-width="0" d="M 5.5483871,4 C 4.6905822,4 4,4.6905822 4,5.5483871 V 26.451613 C 4,27.309418 4.6905822,28 5.5483871,28 h 3.6421875 a 3.2265798,3.2265798 0 0 1 2.4049774,1.075556 L 16,34 20.404449,29.075556 A 3.2265799,3.2265799 0 0 1 22.809426,28 h 3.642187 C 27.309418,28 28,27.309418 28,26.451613 V 5.5483871 C 28,4.6905822 27.309418,4 26.451613,4 Z" />
	<!-- contentHtml -->
	<rect fill="#808080" width="20" height="20" x="6" y="6" rx="2" ry="2" />
</svg>