<?xml version="1.0" encoding="UTF-8" standalone="no"?>
<svg
   width="240"
   height="240"
   viewBox="0 0 240 240"
   version="1.1"
   id="svg1"
   sodipodi:docname="icon_exploded_view.svg"
   inkscape:export-filename="icon_exploded_view.svg"
   inkscape:export-xdpi="96"
   inkscape:export-ydpi="96"
   xmlns:inkscape="http://www.inkscape.org/namespaces/inkscape"
   xmlns:sodipodi="http://sodipodi.sourceforge.net/DTD/sodipodi-0.dtd"
   xmlns="http://www.w3.org/2000/svg"
   xmlns:svg="http://www.w3.org/2000/svg">
  <defs
     id="defs1" />
  <sodipodi:namedview
     id="namedview1"
     pagecolor="#ffffff"
     bordercolor="#000000"
     borderopacity="0.25"
     inkscape:showpageshadow="2"
     inkscape:pageopacity="0.0"
     inkscape:pagecheckerboard="0"
     inkscape:deskcolor="#d1d1d1"
     inkscape:export-bgcolor="#ffffff00" />
  <rect
     style="fill:#ffffff;fill-opacity:1;stroke:none;stroke-width:0.444235;stroke-dasharray:none;stroke-opacity:1"
     id="blank"
     width="240"
     height="240"
     x="0"
     y="0" />
  <path
     fill="#000000"
     stroke="#808080"
     stroke-width="4"
     d="m 55.149266,69.736366 c -34.2416,0 -34.2416,27.7584 0,62.000004 15.9072,15.9072 34.66,29.4768 57.121204,41.3332 l 97.8788,51.6668 -5.4548,-51.6668 c -1.2516,-11.8564 -9.638,-25.426 -25.5452,-41.3332 C 144.90767,97.494766 89.390866,69.736366 55.149266,69.736366 Z"
     id="icon-layer"
     style="fill:#135736;fill-opacity:1;stroke:#c0c0c0;stroke-opacity:1"
     inkscape:label="icon-layer" />
  <ellipse
     fill="#ffffff"
     stroke-width="0"
     cx="31.412903"
     cy="121.24953"
     id="background-layer"
     transform="matrix(1,0,0.70710678,0.70710678,0,0)"
     rx="48"
     ry="67.882248"
     style="fill:#e0e0e0;fill-opacity:1"
     inkscape:label="background-layer" />
  <path
     d="m 102.73665,26.272094 -4.0745,18.972708 20.48502,20.485024 a 3.2356767,1.2359185 31.717474 0 0 3.99952,1.999756 l 13.9732,-0.0376 a 3.2356767,1.2359185 31.717474 0 0 -0.0124,-1.999652 L 125.14644,53.731274 a 3.2356767,1.2359185 31.717474 0 1 0,-1.999756 h 7.99903 a 3.2356767,1.2359185 31.717474 0 1 3.99952,1.999756 l 11.94855,11.948556 a 3.2356767,1.2359185 31.717474 0 0 4.01202,2.012256 l 14.03591,0.0376 a 3.2356767,1.2359185 31.717474 0 0 0,-1.999756 L 146.64385,45.232302 104.64893,26.272094 a 2.4672035,0.94238788 31.717474 0 0 -1.91228,0 z M 152.03069,39.170534 132.9705,30.559078 115.66009,13.24867 a 2.4267575,0.92693888 31.717474 0 0 -2.99964,-1.49982 h -6.99915 a 2.4267575,0.92693888 31.717474 0 0 0,1.49982 l 9.07391,9.073904 -20.397536,-9.211388 a 9.7070304,3.7077557 31.717474 0 0 -7.62408,0 L 81.12677,39.170534 a 2.4267575,0.92693888 31.717474 0 0 1.912288,2.112248 l 7.06164,3.874528 a 2.4267575,0.92693888 31.717474 0 0 2.324704,0.19996 L 97.61229,21.147714 a 2.4672035,0.94238788 31.717474 0 1 1.912272,0 l 53.606018,24.209572 a 2.4267575,0.92693888 31.717474 0 0 1.91228,-0.19996 l -0.68741,-3.874528 a 2.4267575,0.92693888 31.717474 0 0 -2.32473,-2.112248 z"
     id="content-layer"
     style="fill:#361357;fill-opacity:1;stroke:none;stroke-width:1.5;stroke-dasharray:none;stroke-opacity:1" />
  <text
     xml:space="preserve"
     style="font-style:normal;font-variant:normal;font-weight:bold;font-stretch:normal;font-size:12px;line-height:0px;font-family:'Noto Sans TC';-inkscape-font-specification:'Noto Sans TC Bold';fill:#ffffff;fill-opacity:1;stroke:none"
     x="107.85184"
     y="154.07407"
     id="text1"
     inkscape:label="text-icon-layer"><tspan
       sodipodi:role="line"
       id="tspan1"
       x="107.85184"
       y="154.07407">icon layer</tspan></text>
  <text
     xml:space="preserve"
     style="font-style:normal;font-variant:normal;font-weight:bold;font-stretch:normal;font-size:12px;line-height:0px;font-family:'Noto Sans TC';-inkscape-font-specification:'Noto Sans TC Bold';fill:#000000;fill-opacity:1;stroke:none"
     x="105.02049"
     y="103.23223"
     id="text2"
     inkscape:label="text-layer2"><tspan
       sodipodi:role="line"
       id="tspan4"
       x="105.02049"
       y="103.23223">layer</tspan></text>
  <text
     xml:space="preserve"
     style="font-style:normal;font-variant:normal;font-weight:bold;font-stretch:normal;font-size:12px;line-height:0px;font-family:'Noto Sans TC';-inkscape-font-specification:'Noto Sans TC Bold';fill:#000000;fill-opacity:1;stroke:none;stroke-width:1.5;stroke-dasharray:none;stroke-opacity:1"
     x="85.032997"
     y="89.299004"
     id="text3"
     inkscape:label="text-background"><tspan
       sodipodi:role="line"
       id="tspan5"
       x="85.032997"
       y="89.299004">background</tspan></text>
  <text
     xml:space="preserve"
     style="font-style:normal;font-variant:normal;font-weight:bold;font-stretch:normal;font-size:12px;line-height:0px;font-family:'Noto Sans TC';-inkscape-font-specification:'Noto Sans TC Bold';fill:#361357;fill-opacity:1;stroke:none;stroke-width:0.5;stroke-dasharray:none;stroke-opacity:1"
     x="163.48438"
     y="42.096771"
     id="text4"
     inkscape:label="text-layer3"><tspan
       sodipodi:role="line"
       id="tspan4-4"
       x="163.48438"
       y="42.096771">layer</tspan></text>
  <text
     xml:space="preserve"
     style="font-style:normal;font-variant:normal;font-weight:bold;font-stretch:normal;font-size:12px;line-height:0px;font-family:'Noto Sans TC';-inkscape-font-specification:'Noto Sans TC Bold';fill:#361357;fill-opacity:1;stroke:none;stroke-width:0.5;stroke-dasharray:none;stroke-opacity:1"
     x="155.91933"
     y="28.163124"
     id="text5"
     inkscape:label="text-content"><tspan
       sodipodi:role="line"
       id="tspan3-9"
       x="155.91933"
       y="28.163124">content</tspan></text>
</svg>
